HIERARCHY
ROOT SpineBase
{
  OFFSET 0.000000 0.000000 0.000000
  CHANNELS 6 Xposition Yposition Zposition Zrotation Xrotation Yrotation
  JOINT SpineMid
  {
    OFFSET -0.000000 28.572013 0.000000
    CHANNELS 3 Zrotation Xrotation Yrotation
    JOINT SpineShoulder
    {
      OFFSET -0.011293 21.127760 -0.604247
      CHANNELS 3 Zrotation Xrotation Yrotation
      JOINT Neck
      {
        OFFSET -0.023459 7.006227 -0.518667
        CHANNELS 3 Zrotation Xrotation Yrotation
        JOINT Head
        {
          OFFSET 4.257737 12.772239 1.795623
          CHANNELS 3 Zrotation Xrotation Yrotation
          End Site
          {
            OFFSET 0 0 0
          }
        }
      }
      JOINT ShoulderLeft
      {
        OFFSET -12.786405 -3.104064 -9.471545
        CHANNELS 3 Zrotation Xrotation Yrotation
        JOINT ElbowLeft
        {
          OFFSET -6.057035 -22.997637 -0.925793
          CHANNELS 3 Zrotation Xrotation Yrotation
          JOINT WristLeft
          {
            OFFSET 0.365989 -21.559194 -5.025298
            CHANNELS 3 Zrotation Xrotation Yrotation
            JOINT HandLeft
            {
              OFFSET 0.580132 -5.945637 0.071916
              CHANNELS 3 Zrotation Xrotation Yrotation
              JOINT HandTipLeft
              {
                OFFSET 0.965909 -6.642865 -0.028546
                CHANNELS 3 Zrotation Xrotation Yrotation
                End Site
                {
                  OFFSET 0 0 0
                }
              }
              JOINT ThumbLeft
              {
                OFFSET -3.623461 -0.080006 -2.662340
                CHANNELS 3 Zrotation Xrotation Yrotation
                End Site
                {
                  OFFSET 0 0 0
                }
              }
            }
          }
        }
      }
      JOINT ShoulderRight
      {
        OFFSET 14.395548 -4.868493 5.195225
        CHANNELS 3 Zrotation Xrotation Yrotation
        JOINT ElbowRight
        {
          OFFSET 1.646815 -27.433385 1.630949
          CHANNELS 3 Zrotation Xrotation Yrotation
          JOINT WristRight
          {
            OFFSET 0.198640 -27.347960 -7.224332
            CHANNELS 3 Zrotation Xrotation Yrotation
            JOINT HandRight
            {
              OFFSET -1.448593 -1.991644 3.728894
              CHANNELS 3 Zrotation Xrotation Yrotation
              JOINT HandTipRight
              {
                OFFSET 0.115025 -1.592847 0.045210
                CHANNELS 3 Zrotation Xrotation Yrotation
                End Site
                {
                  OFFSET 0 0 0
                }
              }
              JOINT ThumbRight
              {
                OFFSET -1.891841 1.152492 -1.919610
                CHANNELS 3 Zrotation Xrotation Yrotation
                End Site
                {
                  OFFSET 0 0 0
                }
              }
            }
          }
        }
      }
    }
  }
  JOINT HipLeft
  {
    OFFSET -5.712713 0.663254 -5.874081
    CHANNELS 3 Zrotation Xrotation Yrotation
    JOINT KneeLeft
    {
      OFFSET -9.186566 -25.355314 2.609411
      CHANNELS 3 Zrotation Xrotation Yrotation
      JOINT AnkleLeft
      {
        OFFSET -5.553787 -35.137471 7.342373
        CHANNELS 3 Zrotation Xrotation Yrotation
        JOINT FootLeft
        {
          OFFSET 3.345151 -5.943430 -0.360752
          CHANNELS 3 Zrotation Xrotation Yrotation
          End Site
          {
            OFFSET 0 0 0
          }
        }
      }
    }
  }
  JOINT HipRight
  {
    OFFSET 5.292429 1.056464 -0.898962
    CHANNELS 3 Zrotation Xrotation Yrotation
    JOINT KneeRight
    {
      OFFSET -7.620107 -31.840086 6.764882
      CHANNELS 3 Zrotation Xrotation Yrotation
      JOINT AnkleRight
      {
        OFFSET -6.504488 -28.144951 6.609571
        CHANNELS 3 Zrotation Xrotation Yrotation
        JOINT FootRight
        {
          OFFSET 1.990787 -3.581960 -9.529401
          CHANNELS 3 Zrotation Xrotation Yrotation
          End Site
          {
            OFFSET 0 0 0
          }
        }
      }
    }
  }
}
MOTION
Frames: 9
Frame Time: 0.033333
19.719702 68.170996 332.166189 0.000000 0.000000 -24.326402 -0.000000 0.000000 24.326402 -0.000000 0.000000 0.000000 -0.000000 0.000000 0.000000 0.000000 0.000000 0.000000 -0.000000 0.000000 0.000000 -0.000000 0.000000 0.000000 -0.000000 0.000000 0.000000 -0.000000 0.000000 0.000000 0.000000 0.000000 0.000000 0.000000 0.000000 0.000000 -0.000000 0.000000 0.000000 -0.000000 0.000000 0.000000 -0.000000 0.000000 0.000000 -0.000000 0.000000 0.000000 0.000000 0.000000 0.000000 0.000000 0.000000 0.000000 -0.000000 0.000000 24.326402 -0.000000 0.000000 0.000000 -0.000000 0.000000 0.000000 0.000000 0.000000 0.000000 -0.000000 0.000000 24.326402 -0.000000 0.000000 0.000000 -0.000000 0.000000 0.000000 0.000000 0.000000 0.000000
19.754929 68.138811 332.226865 0.083050 -0.065875 -24.524154 -0.102901 0.025460 24.524225 -0.000000 0.000000 0.000000 -0.000000 0.000000 0.000000 0.000000 0.000000 0.000000 -0.000000 0.000000 0.000000 -0.000000 0.000000 0.000000 -0.000000 0.000000 0.000000 -0.681798 0.932399 0.144176 0.000000 0.000000 0.000000 0.000000 0.000000 0.000000 -0.000000 0.000000 0.000000 0.465752 -1.269726 -0.127467 -1.292990 4.373123 -3.787091 -5.170406 1.239652 4.068009 0.000000 0.000000 0.000000 0.000000 0.000000 0.000000 0.379355 -0.726039 24.860336 -0.121661 0.884595 -0.332223 2.009151 5.959304 3.089548 0.000000 0.000000 0.000000 -0.102901 0.025460 24.524225 -0.000000 0.000000 0.000000 -0.000000 0.000000 0.000000 0.000000 0.000000 0.000000
19.789186 68.102409 332.286038 0.151911 -0.125384 -24.661037 -0.190372 0.050563 24.661287 -0.000000 0.000000 0.000000 -0.000000 0.000000 0.000000 0.000000 0.000000 0.000000 -0.000000 0.000000 0.000000 -0.000000 0.000000 0.000000 0.766904 -0.621173 -0.047143 -2.108529 2.346020 0.347516 0.000000 0.000000 0.000000 0.000000 0.000000 0.000000 -0.000000 0.000000 0.000000 0.862791 -2.394139 -0.228534 -2.269230 8.876975 -7.634223 -9.043523 1.115065 8.003674 0.000000 0.000000 0.000000 0.000000 0.000000 0.000000 0.648265 -1.259257 25.249990 -0.114236 2.737555 -0.754435 3.218637 9.659642 5.723091 0.000000 0.000000 0.000000 -0.190372 0.050563 24.661287 -0.000000 0.000000 0.000000 0.629413 0.862506 -1.172757 0.000000 0.000000 0.000000
19.822473 68.061787 332.343705 0.206626 -0.178546 -24.737736 -0.262380 0.075694 24.738231 -0.000000 0.000000 0.000000 -0.000000 0.000000 0.000000 0.000000 0.000000 0.000000 -0.000000 0.000000 0.000000 -0.000000 0.000000 0.000000 0.904214 -0.822227 -0.062749 -2.878022 3.196024 0.500124 0.000000 0.000000 0.000000 0.000000 0.000000 0.000000 -0.000000 0.000000 0.000000 1.187384 -3.360754 -0.305602 -2.859170 13.388332 -11.447539 -11.363940 -0.077220 11.633764 0.000000 0.000000 0.000000 0.000000 0.000000 0.000000 0.813580 -1.621228 25.501080 -0.126854 3.620067 -0.988223 3.883737 12.745805 7.516597 0.000000 0.000000 0.000000 -0.262380 0.075694 24.738231 0.552352 0.740027 -0.044998 0.450637 0.620630 -1.807115 0.000000 0.000000 0.000000
19.854791 68.016947 332.399868 0.247243 -0.225382 -24.754681 -0.318899 0.101140 24.755449 -0.000000 0.000000 0.000000 -0.000000 0.000000 0.000000 0.000000 0.000000 0.000000 -0.000000 0.000000 0.000000 -0.000000 0.000000 0.000000 0.867444 -0.940424 -0.074088 -3.442930 3.814346 0.626589 0.000000 0.000000 0.000000 0.000000 0.000000 0.000000 -0.000000 0.000000 0.000000 1.436238 -4.158867 -0.360919 -3.015130 17.754797 -15.115472 -12.146913 -1.908088 14.926196 0.000000 0.000000 0.000000 0.000000 0.000000 0.000000 0.880075 -1.826230 25.617615 -0.121032 4.187491 -1.132376 4.057825 14.440711 8.577176 0.000000 0.000000 0.000000 -0.318899 0.101140 24.755449 0.642227 0.870237 -0.055347 0.772698 1.026884 -2.537162 0.000000 0.000000 0.000000
19.886140 67.967889 332.454526 0.273808 -0.265909 -24.712050 -0.359899 0.127087 24.713084 -0.000000 0.000000 0.000000 -0.000000 0.000000 0.000000 0.000000 0.000000 0.000000 -0.000000 0.000000 0.000000 -0.000000 0.000000 0.000000 0.660987 -0.974055 -0.081376 -3.804275 4.194919 0.719580 0.000000 0.000000 0.000000 0.000000 0.000000 0.000000 -0.000000 0.000000 0.000000 1.606540 -4.779542 -0.396431 -2.722671 21.817069 -18.515914 -11.560927 -3.960364 17.918427 0.000000 0.000000 0.000000 0.000000 0.000000 0.000000 0.850609 -1.882304 25.601984 -0.101051 4.442131 -1.188711 3.816219 14.700992 8.894194 0.000000 0.000000 0.000000 -0.359899 0.127087 24.713084 0.682546 0.938942 -0.062509 1.181247 1.528107 -3.325793 0.000000 0.000000 0.000000
19.921067 67.915543 332.505878 0.297343 -0.281294 -24.567784 -0.387379 0.132199 24.568961 -0.000000 0.000000 0.000000 -0.474188 -0.636574 0.276075 0.000000 0.000000 0.000000 -0.000000 0.000000 0.000000 -0.000000 0.000000 0.000000 0.047790 -1.259763 -0.121799 -4.413924 5.941087 1.103607 0.000000 0.000000 0.000000 0.000000 0.000000 0.000000 0.273598 -0.771239 -0.028175 1.461464 -4.758536 -0.411420 -3.407660 25.954234 -24.582559 -6.692100 -6.054701 24.693879 0.000000 0.000000 0.000000 0.000000 0.000000 0.000000 0.601870 -1.716758 25.353289 0.020842 4.128691 -1.078427 1.391143 7.148042 5.254099 0.000000 0.000000 0.000000 -0.387379 0.132199 24.568961 0.670862 1.285316 -0.147624 2.575320 2.845203 -5.629989 0.000000 0.000000 0.000000
19.927539 67.855057 332.533194 0.266443 -0.264550 -24.328419 -0.351769 0.131289 24.329437 -0.000000 0.000000 0.000000 -0.486070 -0.849429 0.347772 0.000000 0.000000 0.000000 -0.000000 0.000000 0.000000 -0.000000 0.000000 0.000000 -0.700689 -1.459464 -0.159882 -2.873753 7.388459 1.302090 0.000000 0.000000 0.000000 0.000000 0.000000 0.000000 0.325459 -1.057793 -0.041118 1.693989 -4.990584 -0.467382 0.313006 32.729821 -27.662322 -7.958062 -12.402728 24.947603 0.000000 0.000000 0.000000 0.000000 0.000000 0.000000 0.523333 -1.793957 25.107373 0.363087 4.287708 -1.065508 1.123272 13.494724 8.766139 0.000000 0.000000 0.000000 -0.351769 0.131289 24.329437 0.614874 1.141439 -0.125980 4.333296 4.846555 -8.504739 0.000000 0.000000 0.000000
19.964315 67.787698 332.591955 0.264367 -0.296894 -24.123763 -0.362623 0.162912 24.124964 -0.000000 0.000000 0.000000 -0.516192 -1.129493 0.443968 0.000000 0.000000 0.000000 -0.000000 0.000000 0.000000 -0.000000 0.000000 0.000000 -0.922415 -0.713706 -0.086603 -2.932231 4.863316 0.887368 0.000000 0.000000 0.000000 0.000000 0.000000 0.000000 0.686458 -1.903570 -0.061982 1.168449 -3.885450 -0.420757 3.668628 36.545322 -30.247312 -4.115378 -15.723782 26.963305 0.000000 0.000000 0.000000 0.000000 0.000000 0.000000 0.128747 -1.473724 24.720552 0.567883 3.685851 -0.861195 1.327353 15.019535 9.421667 0.000000 0.000000 0.000000 -0.362623 0.162912 24.124964 0.474618 0.675163 -0.047484 3.128581 3.844422 -6.355436 0.000000 0.000000 0.000000
